<svg width="667" height="667" viewBox="0 0 667 667" fill="none" xmlns="http://www.w3.org/2000/svg">
<path d="M306.933 82C300.8 82.9334 295.467 84 295.2 84.4C294.8 84.6667 295.2 88.8 296 93.4667C296.8 98.1334 297.6 103.067 297.733 104.533C298 106.533 296.267 107.467 288.667 109.467C271.067 114.267 272.933 114.933 269.333 103.467C267.6 97.8667 265.6 93.3334 264.933 93.3334C261.2 93.3334 237.333 101.733 237.333 103.067C237.333 104 238.8 108.8 240.667 114C242.4 119.067 244 124 244 124.8C244 126 225.2 138.667 223.333 138.667C222.933 138.667 218.667 134.4 213.867 129.333C208.933 124.133 204.667 120 204.133 120C203.733 120 198.4 124.267 192.267 129.467L181.2 138.933L190.133 148.933L199.067 158.8L190 168L180.933 177.067L171.867 169.867C166.933 165.867 162.533 162.667 162.267 162.667C162 162.667 157.333 167.867 152 174.133C143.867 183.733 142.533 186 144.133 187.2C154.4 194.933 162.667 201.6 162.667 202.133C162.667 202.8 152.133 222.667 151.067 223.867C150.8 224.267 145.6 222.8 139.333 220.667C133.2 218.533 127.867 217.067 127.6 217.467C125.333 220 117.067 244.267 118.133 245.2C118.8 245.867 123.6 247.733 128.667 249.333C133.867 250.933 138.4 252.667 138.8 253.2C139.733 254 134.667 276.533 133.333 277.733C132.933 278.133 127.867 277.6 122.133 276.533C116.267 275.6 111.333 274.933 111.067 275.2C110.8 275.333 109.2 282 107.467 289.867C105.333 299.867 104.8 304.4 105.867 304.667C106.667 304.933 111.6 305.867 116.667 306.667C131.067 309.067 130.667 308.8 130.667 314.8V320H159.333H188V312.267C188.133 282.267 200.267 247.733 219.333 222.667C225.733 214.4 241.6 198 245.2 196.133C247.2 195.067 249.6 198 262.133 216.933C270.133 229.067 277.867 241.067 279.2 243.467L281.733 247.733L275.6 254.8C268 263.6 261.2 276.133 257.2 289.333C254.533 297.6 254 302.267 254.133 316C254.133 325.2 254.8 335.067 255.733 338C256.933 342 256.933 343.467 255.6 344.267C254.8 344.8 216.267 357.867 170.133 373.333C123.867 388.667 85.6 401.867 85.0666 402.4C84.5333 402.933 123.067 390.4 170.933 374.4C218.667 358.4 257.867 345.467 258 345.733C258.133 345.867 259.2 348.8 260.4 352.133C261.733 355.467 264.8 361.467 267.333 365.467C276.267 379.6 278.667 374.8 245.867 408.533C218.4 436.933 216 439.067 201.467 447.867L186 457.2L182.8 473.6C181.067 482.667 179.067 491.067 178.4 492.267C177.733 493.6 177.6 494.667 178.133 494.667C178.667 494.667 186.8 490.667 196.4 485.6L213.733 476.667L219.867 463.867C225.867 451.333 226.8 450.133 255.067 421.2C271.067 404.8 285.067 390.8 286.133 390.267C287.333 389.6 289.6 390.4 292.4 392.4C301.733 399.6 315.733 405.067 329.733 407.333C333.867 408 334.667 408.667 334.667 411.333C334.667 413.2 333.867 414.667 333.067 414.667C329.6 414.533 313.6 412 311.467 411.2C309.6 410.533 309.333 411.733 309.333 421.733C309.333 431.867 309.6 433.2 311.867 434C314 434.667 314.4 435.6 313.6 439.733C312 449.333 312.267 449.867 318 450.8C320.933 451.333 323.733 451.467 324.133 451.2C324.667 450.933 325.333 447.733 325.867 444C326.667 438 327.067 437.333 330 437.333C333.2 437.333 333.333 437.733 333.333 444.667V452H340H346.667V444.667C346.667 438 346.933 437.333 350 436.533C355.2 435.2 356.933 436.667 357.867 443.2C358.8 449.067 359.067 449.333 363.067 449.333C369.867 449.333 370.667 448.133 369.067 440.8C367.733 434.133 368.267 432.533 372.4 431.733C374.267 431.467 375.467 432.933 377.333 437.867C378.8 441.333 380.133 444.533 380.4 444.8C380.933 445.333 390.667 441.6 390.667 440.8C390.667 440.667 389.467 437.067 388.133 432.933C386.267 427.6 386 425.333 387.067 424.933C388.933 424.267 381.733 409.467 379.2 408.4C378.267 408.133 373.467 409.067 368.533 410.533C363.467 411.867 357.333 413.467 355.067 413.867C350.933 414.533 350.667 414.267 350.667 410.933C350.667 407.6 351.333 407.2 360.133 405.067C365.467 403.733 372 401.6 374.8 400L380 397.333L395.2 420.533C415.6 451.6 414.4 448.533 407.733 452C395.6 458.267 368 466.667 359.067 466.667H354.667V498.4V530.133L365.067 528.933C370.667 528.267 377.333 527.6 379.867 527.6C384.8 527.333 384.533 526.933 388.533 544.133L389.333 547.733L403.6 545.067C411.467 543.733 418.133 542.267 418.533 542C418.8 541.6 418 536.267 416.667 529.867C415.333 523.333 414.8 518 415.467 517.467C416.133 516.933 421.2 514.267 426.8 511.733L437.067 506.933L444.8 517.467C449.067 523.2 453.067 528 453.733 528C456.4 528 478.533 511.6 477.733 510.267C477.2 509.467 474 504.933 470.4 500.267C466.933 495.467 464 491.2 464 490.8C464 490.267 468.267 486.4 473.467 482.133L482.933 474.4L491.467 482.8L500.133 491.067L505.733 485.867C508.8 483.067 513.867 478.267 517.067 475.333L522.667 470.133L513.333 460.667L504 451.2L510.667 442C514.267 436.933 517.467 432.267 517.733 431.6C517.867 430.933 522.8 432.533 528.533 435.2C534.267 437.867 539.733 440 540.533 440C541.733 440 554.667 416.267 554.667 414.133C554.667 413.867 549.867 411.333 544 408.533C538.133 405.867 533.333 403.2 533.333 402.8C533.333 402.4 535.067 397.467 537.2 392C539.333 386.533 541.333 380.4 541.867 378.267L542.667 374.667H511.333H480L478 379.467C475.2 386.267 467.2 399.333 460.4 408.267C454.267 416.4 437.6 433.333 435.733 433.333C435.067 433.333 431.2 428.133 427.067 421.733C422.933 415.2 415.467 403.867 410.4 396.267C405.467 388.8 401.333 382.267 401.333 381.867C401.333 381.6 403.733 378.133 406.8 374.4C416.133 362.533 423.6 344.933 425.867 328.933L426.8 322.667H432.8C438 322.667 438.667 322.933 438.667 325.733C438.667 335.2 429.467 361.2 422.667 370.667C421.2 372.667 420 374.8 420 375.2C420 375.6 422.8 376 426.4 376C430.667 376 435.467 377.333 441.067 380C445.733 382.267 450 383.733 450.667 383.333C451.867 382.533 455.2 374.667 454.533 374.133C454.267 374 451.2 372.133 447.6 370.133C442.133 367.067 441.467 366.267 442.667 364C444.4 360.8 444.8 360.8 452 363.333C459.333 365.867 459.333 365.867 461.067 362C463.6 356.4 462.933 355.2 456.4 352.667C448.133 349.6 447.733 349.067 448.8 344.8C449.6 341.2 449.733 341.2 458 342C462.533 342.533 466.667 342.4 467.067 341.867C467.467 341.2 468 338.533 468.267 336L468.667 331.333L460.667 330C453.867 328.8 452.533 328.133 452.267 325.6C451.867 322.8 452.267 322.667 460.533 322.667H469.333V316.667V310.667H460.667H452V306.133C452 301.067 452.4 300.8 462.4 299.333L468.267 298.4L467.333 293.467C466.8 290.8 466 288.267 465.6 287.733C465.067 287.333 461.467 287.467 457.6 288.267C451.733 289.467 450.133 289.333 449.2 287.867C447.067 284.4 448 283.2 455.467 280.667C459.467 279.333 463.067 277.867 463.2 277.467C463.467 277.067 462.8 274.4 461.733 271.733L459.733 266.933L452.4 269.467C448.267 270.8 444.8 271.867 444.667 271.733C444 270.267 441.333 263.733 441.333 263.333C441.333 263.067 444.667 260.933 448.8 258.667C452.8 256.267 456.533 253.6 456.933 252.667C457.733 250.533 453.6 244 451.467 244C450.667 244.133 447.067 246.133 443.333 248.667C436.667 253.2 436.667 253.2 434.533 250.533C432.533 247.867 432.4 247.867 426.8 252.933L421.067 258L424.4 263.067C429.333 270.267 435.733 287.6 437.6 298.533C438.533 303.733 438.933 308.267 438.533 308.533C438.133 308.933 435.467 309.6 432.4 310.133L426.933 310.933L426 304.533C424.533 293.733 420.133 279.867 414.667 269.867L409.6 260.4L427.2 245.733C478.8 202.4 498.8 185.733 506.667 179.467L515.333 172.4L524.667 173.333C529.867 173.867 534 174.133 534.133 174.133C535.867 172.267 561.333 129.067 561.333 128C561.333 126.133 563.333 125.733 532.933 134.667L508.133 142L507.467 148C507.067 151.333 506.4 157.333 505.867 161.333L504.933 168.667L454.267 210.8L403.467 253.067L395.333 245.733C386.4 237.6 370.4 229.067 359.2 226.533C352.267 224.933 352 224.8 352 220.4C352 215.467 351.467 215.6 364 218.8C366.533 219.467 369.067 220 369.733 220C370.267 220 370.667 215.2 370.667 209.2C370.667 199.333 370.4 198.4 367.867 197.733C365.333 197.067 365.2 196.267 366 190L366.8 182.933L361.333 182C358.267 181.467 355.6 181.333 355.2 181.733C354.933 182 354.133 184.933 353.6 188.133C353.067 191.467 351.867 194 350.933 193.867C350.133 193.733 348.4 193.6 347.333 193.467C345.867 193.333 345.333 191.6 345.333 186.667V180H339.333H333.333V186.667C333.333 192.133 332.933 193.333 331.067 193.333C329.733 193.333 327.333 193.733 325.733 194.133C323.067 194.8 322.667 194.267 321.867 189.6C320.667 182 319.867 181.333 314.133 182.267L309.067 183.067L310 190C310.8 196.533 310.667 197.067 307.733 197.867C303.067 199.067 303.067 199.067 301.333 192.667C299.467 186 299.2 185.867 292.667 188.533L288.133 190.533L290 195.2C291.067 197.733 292 201.2 292 202.8C292 205.067 297.867 215.6 302.133 221.067C302.267 221.333 307.867 220.4 314.4 218.8C329.733 215.2 329.6 215.2 329.067 220.133C328.667 224.133 328.133 224.533 318 227.6C312.133 229.333 306.4 231.067 305.2 231.467C303.6 232 299.2 226.4 288 209.067C279.733 196.4 272.133 184.667 271.067 183.067C269.2 180.267 269.467 180 276.8 176.667C294 168.8 319.6 162.667 335.733 162.667H341.333V132.667V102.667H334.933H328.4L326.667 91.3334C324.667 78.2667 326.267 79.0667 306.933 82ZM351.467 261.467C381.067 266.933 401.333 295.467 396.4 324.8C388.667 370 332.667 387.6 300.4 354.933C270.133 324.133 284.4 273.333 326.667 261.867C334.267 259.733 341.467 259.6 351.467 261.467Z" fill="white"/>
<path d="M332 285.2C316.4 290.267 306.8 304.133 308.4 319.2C310.267 337.2 322.667 348.533 340.667 348.533C347.6 348.533 351.333 347.867 355.333 345.733C378.8 333.2 378.933 299.733 355.6 287.733C349.733 284.8 337.333 283.467 332 285.2Z" fill="white"/>
<path d="M416.133 215.6L410.8 221.867L407.333 218.667C405.6 216.933 403.733 215.733 403.467 216.133C403.2 216.4 401.333 220.133 399.333 224.533L395.6 232.267L401.467 237.467C404.667 240.267 407.733 242.533 408.133 242.667C410.4 242.8 421.067 232.933 420.4 231.2C420 230.267 421.867 226.933 424.533 223.733C427.2 220.667 429.333 217.467 429.333 216.533C429.333 215.6 427.6 213.6 425.467 212.133L421.6 209.333L416.133 215.6Z" fill="white"/>
<path d="M248.533 219.2C246.133 221.067 246.133 221.333 250.4 225.6C255.2 230.667 255.6 232.267 252.667 234.667C250.667 236.267 250 236 241.867 230C240.667 229.2 239.067 229.733 236.667 232C234.8 233.733 233.333 235.733 233.333 236.533C233.467 237.333 235.733 239.733 238.533 242L243.6 246L241.067 251.067L238.533 256.133L232.4 252.8C229.067 250.933 225.867 249.333 225.2 249.333C224.533 249.333 223.067 251.2 222 253.467C219.467 258.4 220.4 259.867 228 263.333C233.467 265.733 234.267 267.2 232.133 270.667C231.067 272.267 229.867 272.267 223.333 270.133C219.2 268.8 215.6 268 215.467 268.267C214.533 269.6 212 276.267 212 277.2C212 277.867 215.6 279.6 220.133 281.2C226.133 283.467 228 284.667 227.467 286.267C227.067 287.333 226.667 289.067 226.667 290.267C226.667 292 225.2 292.133 217.467 291.333L208.4 290.4L207.467 294.667C206.133 301.867 206.4 302.267 213.067 303.2C222.4 304.533 224 305.333 224 308C224 310.267 222.8 310.533 215.067 310.933L206 311.333L205.6 316.933L205.2 322.667H214.533H223.867L224.667 328.933C226 338.8 225.867 338.667 234.533 338.667H242.4L241.067 332.933C238.933 323.733 240.533 296.8 244 286C248.4 272.133 255.333 259.733 264.267 250L272.267 241.333L266.533 233.6C260.133 225.067 253.2 217.333 252 217.333C251.6 217.333 250 218.133 248.533 219.2Z" fill="white"/>
</svg>
